<svg xmlns="http://www.w3.org/2000/svg" viewBox="0 0 870 420" fill="none">
  <defs>
    <linearGradient id="bg" x1="0" y1="0" x2="1" y2="1">
      <stop offset="0%" stop-color="#1a1a2e"/>
      <stop offset="100%" stop-color="#16213e"/>
    </linearGradient>
    <linearGradient id="accent" x1="0" y1="0" x2="1" y2="0">
      <stop offset="0%" stop-color="#b73337"/>
      <stop offset="100%" stop-color="#e74c3c"/>
    </linearGradient>
  </defs>
  <rect width="870" height="420" fill="url(#bg)" rx="12"/>
  <!-- Motorcycle silhouette -->
  <g transform="translate(480,80) scale(0.8)" opacity="0.15">
    <path d="M200 300c55 0 100-45 100-100s-45-100-100-100-100 45-100 100 45 100 100 100z" fill="#fff"/>
    <path d="M420 300c55 0 100-45 100-100s-45-100-100-100-100 45-100 100 45 100 100 100z" fill="#fff"/>
    <path d="M150 200h320c20-80 0-120-40-140h-240c-40 20-60 60-40 140z" fill="#fff"/>
    <path d="M280 80l40-40h80l40 40" stroke="#fff" stroke-width="8" fill="none"/>
  </g>
  <!-- Text -->
  <text x="60" y="140" font-family="Poppins,sans-serif" font-size="42" font-weight="700" fill="#fff">Peças e Acessórios</text>
  <text x="60" y="195" font-family="Poppins,sans-serif" font-size="42" font-weight="700" fill="#fff">para sua Moto</text>
  <rect x="60" y="215" width="80" height="4" fill="url(#accent)" rx="2"/>
  <text x="60" y="260" font-family="Poppins,sans-serif" font-size="18" fill="#ccc">Entrega rápida • Preços imbatíveis • Suporte especializado</text>
  <rect x="60" y="290" width="200" height="48" fill="url(#accent)" rx="8"/>
  <text x="105" y="320" font-family="Poppins,sans-serif" font-size="16" font-weight="600" fill="#fff">VER OFERTAS →</text>
</svg>
