<svg height="512pt" viewBox="0 0 512 512" width="512pt" xmlns="http://www.w3.org/2000/svg"><path d="m512 220.9375c0-42.050781-29.296875-97.4375-76.457031-144.546875-32.515625-32.480469-69.386719-56.890625-103.816407-68.734375-28.441406-9.785156-52.820312-10.144531-70.507812-1.34375-.300781.078125-.601562.164062-.898438.28125-27.347656 10.621094-95.285156 59.539062-81.410156 157.003906 3.988282 28.023438 2.308594 56.90625-15.015625 80.390625-8.574219 11.625-20.871093 19.285157-29.703125 30.53125-10.140625 12.917969-15.589844 29.121094-15.515625 45.53125.035157 7.925781 1.332031 15.660157 3.757813 22.96875l-21.484375 21.464844c-6.839844 6.832031 3.753906 17.4375 10.59375 10.605469l17.566406-17.550782c2.847656 4.730469 6.234375 9.160157 10.152344 13.195313 4.554687 4.691406 9.632812 8.679687 15.09375 11.945313l-47.546875 47.496093c-5.792969 5.789063.820312 10.710938 4.667968 14.554688 5.757813 5.75 8.929688 13.394531 8.929688 21.527343 0 8.132813-3.171875 15.777344-8.929688 21.527344-11.890624 11.878906-31.238281 11.875-43.125 0-7.136718-7.132812-10.273437-17.316406-8.386718-27.242187.960937-5.050781-3.679688-9.726563-8.761719-8.761719-9.9375 1.890625-20.144531-1.246094-27.285156-8.378906-5.757813-5.753906-8.925781-13.398438-8.925781-21.527344 0-8.132812 3.167968-15.777344 8.925781-21.527344 11.890625-11.878906 31.238281-11.875 43.125 0 1.109375 1.109375 2.179687 2.371094 3.175781 3.75 5.660156 7.835938 17.8125-.945312 12.148438-8.78125-1.464844-2.027344-3.054688-3.902344-4.730469-5.574218-17.730469-17.714844-46.582031-17.714844-64.3125 0-8.59375 8.582031-13.324219 19.992187-13.324219 32.132812 0 12.136719 4.730469 23.550781 13.324219 32.132812 8.363281 8.355469 19.535156 13.03125 31.125 13.292969.261719 11.574219 4.945312 22.734375 13.308593 31.089844 8.867188 8.859375 20.507813 13.285156 32.15625 13.285156 11.644532 0 23.292969-4.429687 32.15625-13.285156 8.59375-8.582031 13.324219-19.992187 13.324219-32.132813 0-11.667968-4.371093-22.664062-12.339843-31.117187l45.859374-45.8125c17.089844 5.613281 36.152344 4.742187 52.621094-2.523437 15.203125-6.707032 24.105469-18.625 35.90625-29.503907 25.226563-23.25 56.316406-31.238281 90.03125-25.070312 41.148438 7.523437 79.519532-.503907 110.960938-23.226563 25.191406-18.203125 41.035156-42.40625 46.949218-57.597656.113282-.292969.203126-.585938.277344-.878906 4.171875-8.421875 6.339844-18.414063 6.339844-29.589844zm-62.347656 75.917969c-28.449219 20.558593-61.921875 27.496093-99.480469 20.628906-53.992187-9.875-84.835937 11.582031-105.667969 31.378906-1.472656 1.402344-4.390625 4.554688-8.046875 8.53125-1.304687 1.417969-2.925781 3.183594-3.285156 3.542969-11.03125 11.019531-25.664063 17.070312-41.25 17.070312-.152344 0-.304687 0-.457031 0-15.75-.121093-30.472656-6.414062-41.453125-17.71875-21.535157-22.171874-21.695313-58.398437-.351563-80.75 1.59375-1.671874 3.914063-3.601562 5.960938-5.300781 1.097656-.910156 2.132812-1.773437 2.996094-2.542969 31.605468-28.230468 42.109374-61.191406 35.132812-110.207031-5.40625-37.988281 2.070312-71.527343 22.222656-99.6875 5.777344-8.070312 12.175782-15.011719 18.605469-20.84375-1.273437 5.347657-1.933594 11.101563-1.933594 17.21875 0 42.046875 29.296875 97.433594 76.457031 144.542969 27.179688 27.148438 57.226563 48.585938 86.886719 61.984375 8.808594 3.984375 14.980469-9.679687 6.171875-13.660156-28.035156-12.664063-56.550781-33.042969-82.464844-58.929688-43.777343-43.726562-72.0625-96.300781-72.0625-133.9375 0-13.789062 3.769532-24.542969 11.207032-31.96875 13.332031-13.324219 37.488281-14.878906 68.011718-4.378906 32.320313 11.121094 67.160157 34.265625 98.097657 65.167969 43.777343 43.726562 72.0625 96.300781 72.0625 133.9375 0 13.789062-3.769531 24.546875-11.203125 31.96875-10.667969 10.65625-26.65625 11.839844-38.191406 10.953125-5.183594-.398438-9.335938 4.921875-7.683594 9.851562 1.929687 5.765625 8.867187 5.378907 13.792968 5.378907 6.320313 0 12.234376-.6875 17.710938-2.015626-6.050781 6.839844-13.316406 13.667969-21.785156 19.785157zm0 0"/><path d="m343.269531 96.46875c-5.507812 5.5-8.417969 13.042969-8.417969 21.8125 0 13.398438 6.984376 28.375 18.683594 40.0625 12.25 12.238281 27.050782 18.71875 40.039063 18.71875 8.464843 0 16.164062-2.753906 21.878906-8.464844 5.507813-5.5 8.417969-13.042968 8.417969-21.8125 0-13.398437-6.984375-28.378906-18.679688-40.0625-20.242187-20.21875-47.4375-24.722656-61.921875-10.253906zm61.589844 61.523438c-8.253906 8.246093-26.910156 3.550781-40.730469-10.253907-8.8125-8.804687-14.285156-20.089843-14.285156-29.457031 0-3.28125.695312-7.886719 4.019531-11.207031 2.769531-2.765625 6.707031-4.074219 11.234375-4.074219 8.984375 0 20.308594 5.148438 29.496094 14.328125 8.8125 8.804687 14.289062 20.089844 14.289062 29.457031 0 3.277344-.699218 7.886719-4.023437 11.207032zm0 0"/><path d="m168.023438 305.632812c6.835937-6.835937-3.765626-17.433593-10.601563-10.601562-5.441406 5.441406-8.691406 14.757812-8.691406 24.914062 0 11.019532 3.722656 21.121094 10.484375 28.445313 6.582031 7.128906 17.558594-3.078125 11.015625-10.167969-9.484375-10.273437-7.042969-27.753906-2.207031-32.589844zm0 0"/></svg>