<svg height="512pt" viewBox="-92 0 512 512" width="512pt" xmlns="http://www.w3.org/2000/svg"><path d="m323.148438 252.914062c-1.640626-2.847656-3.660157-5.359374-5.957032-7.511718 3.25-12.769532 4.90625-25.925782 4.90625-39.195313 0-69.042969-44.957031-130.082031-110.171875-150.875.300781-2.183593.46875-4.410156.46875-6.675781 0-3.046875-.292969-6.023438-.832031-8.917969 8.574219-.242187 17.699219 1.273438 25.796875 4.597657 3.832031 1.574218 8.210937-.257813 9.785156-4.089844 1.574219-3.828125-.257812-8.210938-4.089843-9.785156-11.59375-4.761719-24.699219-6.515626-36.769532-5.378907-8.316406-14.945312-24.265625-25.082031-42.542968-25.082031-26.832032 0-48.65625 21.828125-48.65625 48.65625 0 2.269531.167968 4.503906.472656 6.695312-23.71875 7.574219-45.488282 20.746094-63.292969 38.394532-2.945313 2.917968-2.964844 7.664062-.050781 10.605468 1.46875 1.480469 3.398437 2.222657 5.328125 2.222657 1.90625 0 3.816406-.722657 5.277343-2.171875 16.070313-15.925782 35.6875-27.820313 57.0625-34.6875 7.867188 16.3125 24.566407 27.59375 43.859376 27.59375 19.292968 0 36-11.289063 43.863281-27.609375 58.90625 18.894531 99.492187 74.089843 99.492187 136.507812 0 10.703125-1.203125 21.324219-3.539062 31.6875-2.628906-.683593-5.375-1.042969-8.195313-1.042969h-125.675781c-17.03125 0-30.890625 13.855469-30.890625 30.890626v17.828124c0 13.421876-10.917969 24.339844-24.34375 24.339844-13.421875 0-24.339844-10.917968-24.339844-24.339844v-17.828124c0-17.03125-13.859375-30.890626-30.890625-30.890626h-27.105468c-2.820313 0-5.566407.359376-8.195313 1.042969-2.335937-10.363281-3.539063-20.980469-3.539063-31.6875 0-26.539062 7.304688-52.449219 21.125-74.9375 2.171876-3.53125 1.066407-8.148437-2.460937-10.316406s-8.148437-1.066406-10.316406 2.460937c-15.273438 24.851563-23.347657 53.480469-23.347657 82.792969 0 13.269531 1.65625 26.429688 4.90625 39.195313-2.300781 2.15625-4.320312 4.664062-5.960937 7.511718-5.789063 10.058594-5.769531 22.054688.054687 32.09375l117.832032 203.078126c8.691406 14.972656 24.214844 23.914062 41.527344 23.914062s32.835937-8.941406 41.523437-23.914062l6.035156-10.402344c2.078125-3.582032.859375-8.171875-2.722656-10.25-3.585937-2.082032-8.171875-.863282-10.253906 2.722656l-6.035157 10.402344c-5.972656 10.292968-16.644531 16.441406-28.546874 16.441406-11.902344 0-22.578126-6.148438-28.550782-16.441406l-117.832031-203.082032c-3.101563-5.339843-3.109375-11.726562-.027344-17.078124 3.082031-5.351563 8.609375-8.546876 14.785157-8.546876h27.105468c8.761719 0 15.890625 7.128907 15.890625 15.890626v17.828124c0 21.691407 17.648438 39.339844 39.34375 39.339844 21.691407 0 39.339844-17.648437 39.339844-39.339844v-17.828124c0-8.761719 7.132813-15.890626 15.894531-15.890626h125.671875c6.179688 0 11.707031 3.195313 14.789063 8.546876 3.082031 5.351562 3.070312 11.738281-.027344 17.078124l-94.066406 162.125c-2.078125 3.582032-.859375 8.171876 2.722656 10.25 3.582031 2.078126 8.171875.859376 10.25-2.722656l94.070312-162.125c5.820313-10.035156 5.839844-22.035156.046876-32.089844zm-159.40625-170.605468c-18.558594 0-33.65625-15.097656-33.65625-33.652344 0-18.558594 15.097656-33.65625 33.65625-33.65625 10.976562 0 20.738281 5.285156 26.886718 13.441406-3.507812 1.242188-6.773437 2.792969-9.710937 4.65625-3.496094 2.21875-4.53125 6.855469-2.3125 10.351563 1.429687 2.25 3.855469 3.484375 6.339843 3.484375 1.375 0 2.765626-.378906 4.011719-1.167969 2.304688-1.464844 4.945313-2.65625 7.808594-3.589844.410156 2.097657.628906 4.261719.628906 6.480469 0 18.554688-15.09375 33.652344-33.652343 33.652344zm74.519531 104.402344v-11.125c0-4.144532-3.355469-7.5-7.5-7.5-4.140625 0-7.5 3.355468-7.5 7.5v11.125c0 4.140624 3.359375 7.5 7.5 7.5 4.144531 0 7.5-3.359376 7.5-7.5zm-16.25 151.957031c1.917969 0 3.839843-.734375 5.304687-2.195313l27.511719-27.515625c2.929687-2.929687 2.929687-7.675781 0-10.605469-2.925781-2.929687-7.675781-2.929687-10.605469 0l-27.511718 27.511719c-2.929688 2.929688-2.929688 7.679688 0 10.605469 1.460937 1.464844 3.382812 2.199219 5.300781 2.199219zm-125.292969-144.457031c4.144531 0 7.5-3.359376 7.5-7.5v-11.125c0-4.144532-3.355469-7.5-7.5-7.5-4.140625 0-7.5 3.355468-7.5 7.5v11.125c0 4.140624 3.359375 7.5 7.5 7.5zm73.453125 221.457031-23.371094 23.371093c-2.929687 2.929688-2.929687 7.679688 0 10.609376 1.464844 1.460937 3.382813 2.195312 5.304688 2.195312 1.917969 0 3.835937-.734375 5.300781-2.199219l23.371094-23.371093c2.929687-2.929688 2.929687-7.675782 0-10.605469-2.929688-2.929688-7.675782-2.929688-10.605469 0zm-6.429687-212.914063c8.9375 0 17.441406-3.871094 23.324218-10.621094 2.71875-3.125 2.394532-7.863281-.726562-10.582031-3.125-2.722656-7.863282-2.398437-10.582032.726563-3.035156 3.480468-7.414062 5.476562-12.019531 5.476562-4.601562 0-8.980469-1.996094-12.011719-5.476562-2.722656-3.125-7.460937-3.449219-10.582031-.730469-3.125 2.722656-3.449219 7.460937-.730469 10.582031 5.886719 6.753906 14.386719 10.625 23.328126 10.625zm-63.386719 148.792969-5.957031 5.957031c-2.929688 2.929688-2.929688 7.679688-.003907 10.605469 1.464844 1.464844 3.386719 2.199219 5.304688 2.199219s3.839843-.734375 5.304687-2.195313l5.960938-5.960937c2.929687-2.929688 2.929687-7.675782 0-10.605469-2.929688-2.929687-7.679688-2.929687-10.609375 0zm0 0"/></svg>