<svg height="480pt" viewBox="-72 0 480 480.00009" width="480pt" xmlns="http://www.w3.org/2000/svg"><path d="m312 128h-1.234375l-12.773437-75.648438c-1.746094-11.738281-11.851563-20.40625-23.71875-20.351562h-18.273438v-16c-.007812-8.832031-7.167969-15.9921875-16-16h-27.054688c-6.066406-.0195312-11.617187 3.410156-14.3125 8.84375l-11.578124 23.15625h-125.328126c-11.824218-.070312-21.914062 8.542969-23.699218 20.234375l-12.789063 75.765625h-1.238281c-13.25.015625-23.984375 10.75-24 24v16c.015625 13.25 10.75 23.984375 24 24h.429688l1.800781 32.441406 15.976562-.882812-1.75-31.558594h255.085938l-1.75 31.558594 15.976562.882812 1.800781-32.441406h.429688c13.25-.015625 23.984375-10.75 24-24v-16c-.015625-13.25-10.75-23.984375-24-24zm-99.054688-112h27.054688v16h-35.054688zm-159.125 38.78125c.582032-3.910156 3.953126-6.800781 7.90625-6.78125h212.546876c3.996093-.003906 7.378906 2.941406 7.925781 6.898438l12.335937 73.101562h-253.070312zm266.179688 113.21875c-.003906 4.414062-3.585938 7.996094-8 8h-288c-4.414062-.003906-7.996094-3.585938-8-8v-16c.003906-4.414062 3.585938-7.996094 8-8h288c4.414062.003906 7.996094 3.585938 8 8zm0 0"/><path d="m280.875 456.457031c-.246094 4.234375-3.746094 7.542969-7.988281 7.542969h-209.773438c-4.234375 0-7.738281-3.300781-7.988281-7.527344l-1.378906-24.914062-15.976563.882812 1.378907 24.929688c.738281 12.699218 11.246093 22.621094 23.964843 22.628906h209.773438c12.726562-.011719 23.234375-9.941406 23.964843-22.644531l1.378907-24.914063-15.976563-.882812zm0 0"/><path d="m283.539062 240h-231.078124c-6.597657 0-12.902344 2.714844-17.433594 7.503906-4.535156 4.792969-6.894532 11.238282-6.527344 17.824219l7.097656 128.003906c.714844 12.714844 11.230469 22.660157 23.964844 22.667969h216.875c12.734375-.007812 23.25-9.953125 23.964844-22.667969l7.097656-128c.367188-6.585937-1.992188-13.035156-6.523438-17.824219-4.535156-4.792968-10.839843-7.507812-17.4375-7.507812zm.886719 152.445312c-.238281 4.238282-3.742187 7.550782-7.988281 7.554688h-216.875c-4.246094 0-7.75-3.316406-7.988281-7.554688l-7.097657-128.003906c-.121093-2.195312.664063-4.34375 2.175782-5.941406 1.507812-1.59375 3.609375-2.5 5.808594-2.5h231.078124c2.199219 0 4.300782.90625 5.8125 2.503906 1.507813 1.597656 2.296876 3.746094 2.171876 5.941406zm0 0"/><path d="m168 272c-30.929688 0-56 25.070312-56 56s25.070312 56 56 56 56-25.070312 56-56c-.035156-30.914062-25.085938-55.964844-56-56zm0 96c-22.089844 0-40-17.910156-40-40s17.910156-40 40-40 40 17.910156 40 40c-.027344 22.082031-17.917969 39.972656-40 40zm0 0"/></svg>