<?xml version="1.0" encoding="UTF-8"?>
<svg xmlns="http://www.w3.org/2000/svg" viewBox="0 0 24 24" width="24" height="24" role="img" aria-label="Truck">
  <path d="M3 6a2 2 0 0 1 2-2h9a1 1 0 0 1 1 1v2h3.3a2 2 0 0 1 1.7.95l1.7 2.83a2 2 0 0 1 .3 1.03V16a2 2 0 0 1-2 2h-1.1a2.9 2.9 0 0 1-5.8 0H9.9a2.9 2.9 0 0 1-5.8 0H3a1 1 0 0 1-1-1V6h1Zm2 0v9.2a2.9 2.9 0 0 1 4.9.8h3.2a2.9 2.9 0 0 1 4.9-.8H20v-1.2a1 1 0 0 0-.15-.52L18.15 10H15v3a1 1 0 0 1-1 1H5V6Zm2 13a1.5 1.5 0 1 0 0-3 1.5 1.5 0 0 0 0 3Zm11 0a1.5 1.5 0 1 0 0-3 1.5 1.5 0 0 0 0 3Z" fill="currentColor"/>
</svg>
